# xmcd CD database file
#
# Track frame offsets:
#	150
#	14943
#	28216
#	43829
#	59682
#	73952
#	89090
#	105201
#	120461
#	133776
#	149332
#	162517
#	177402
#	191263
#	205038
#	220190
#	234884
#	249787
#	264043
#	277092
#
# Disc length: 3874 seconds
#
# Revision: 0
# Processed by: cddbd v1.5.1PL2 Copyright (c) Steve Scherf et al.
# Submitted via: CDex 1.51
#
DISCID=2d0f2014
DTITLE=Glenn Miller - Serge Dutfoy - 1944
DYEAR=1944
DGENRE=Jazz
TTITLE0=pennsilvania 6-5000
TTITLE1=little beown jug
TTITLE2=chattanooga choo-choo
TTITLE3=sunrise serenade
TTITLE4=at last
TTITLE5=(i've got a gal in) kalamazoo
TTITLE6=serenade in blue
TTITLE7=moonlight cocktail
TTITLE8=adios
TTITLE9=stardust
TTITLE10=and the angels sing
TTITLE11=my blue heaven
TTITLE12=i know why (and so do you)
TTITLE13=you stepped out of a dream
TTITLE14=perfidia
TTITLE15=don0t sit under the apple tree
TTITLE16=the nearness of you
TTITLE17=when johnny comes marching home
TTITLE18=blueberry hill
TTITLE19=five o'clock whistle
EXTD=YEAR: 1944
EXTT0=
EXTT1=
EXTT2=
EXTT3=
EXTT4=
EXTT5=
EXTT6=
EXTT7=
EXTT8=
EXTT9=
EXTT10=
EXTT11=
EXTT12=
EXTT13=
EXTT14=
EXTT15=
EXTT16=
EXTT17=
EXTT18=
EXTT19=
PLAYORDER=
